HIERARCHY
ROOT hip
{
	OFFSET 0.000000 0.000000 0.000000 
	CHANNELS 6 Xposition Yposition Zposition Xrotation Zrotation Yrotation
	JOINT abdomen
	{
		OFFSET 0.000000 3.402643 0.000000 
		CHANNELS 3 Xrotation Zrotation Yrotation
		JOINT chest
		{
			OFFSET 0.000000 8.438565 -0.680529 
			CHANNELS 3 Xrotation Zrotation Yrotation
			JOINT neck
			{
				OFFSET 0.000000 10.207942 -0.272212 
				CHANNELS 3 Xrotation Zrotation Yrotation
				JOINT head
				{
					OFFSET 0.000000 3.130431 0.000000 
					CHANNELS 3 Xrotation Zrotation Yrotation
					End Site
					{
						OFFSET 0.000000 3.130435 0.000000 
					}
				}
			}
			JOINT lCollar
			{
				OFFSET 3.470700 6.669187 -0.816635 
				CHANNELS 3 Yrotation Zrotation Xrotation
				JOINT lShldr
				{
					OFFSET 3.198488 0.000000 0.000000 
					CHANNELS 3 Zrotation Yrotation Xrotation
					JOINT lForeArm
					{
						OFFSET 10.139888 0.000000 0.000000 
						CHANNELS 3 Yrotation Zrotation Xrotation
						JOINT lHand
						{
							OFFSET 8.370511 0.000000 0.000000 
							CHANNELS 3 Zrotation Yrotation Xrotation
							End Site
							{
								OFFSET 4.083176 0.000000 0.000000 
							}
						}
					}
				}
			}
			JOINT rCollar
			{
				OFFSET -3.470700 6.669187 -0.816635 
				CHANNELS 3 Yrotation Zrotation Xrotation
				JOINT rShldr
				{
					OFFSET -3.198488 0.000000 0.000000 
					CHANNELS 3 Zrotation Yrotation Xrotation
					JOINT rForeArm
					{
						OFFSET -10.139888 0.000000 0.000000 
						CHANNELS 3 Yrotation Zrotation Xrotation
						JOINT rHand
						{
							OFFSET -8.370511 0.000000 0.000000 
							CHANNELS 3 Zrotation Yrotation Xrotation
							End Site
							{
								OFFSET -4.083176 0.000000 0.000000 
							}
						}
					}
				}
			}
		}
	}
	JOINT lThigh
	{
		OFFSET 5.308129 -1.633274 1.361059 
		CHANNELS 3 Xrotation Zrotation Yrotation
		JOINT lShin
		{
			OFFSET -2.041588 -20.007561 0.000000 
			CHANNELS 3 Xrotation Zrotation Yrotation
			JOINT lFoot
			{
				OFFSET 0.000000 -19.190928 -1.224953 
				CHANNELS 3 Xrotation Yrotation Zrotation
				End Site
				{
					OFFSET 0.000000 -2.449906 4.627600 
				}
			}
		}
	}
	JOINT rThigh
	{
		OFFSET -5.308129 -1.633274 1.361059 
		CHANNELS 3 Xrotation Zrotation Yrotation
		JOINT rShin
		{
			OFFSET 2.041588 -20.007561 0.000000 
			CHANNELS 3 Xrotation Zrotation Yrotation
			JOINT rFoot
			{
				OFFSET 0.000000 -19.190928 -1.224953 
				CHANNELS 3 Xrotation Yrotation Zrotation
				End Site
				{
					OFFSET 0.000000 -2.449906 4.627600 
				}
			}
		}
	}
}
MOTION
Frames: 15
Frame Time: 0.033333
-9.679370 50.628452 23.502132 2.484702 0.936853 -2.129100 0.000000 0.000000 0.000000 2.377266 -1.279051 1.123203 3.486905 -3.024659 -2.415961 11.057284 5.771475 -5.780638 -5.659123 -1.091138 2.624226 -88.668137 -49.819885 35.154335 -49.660027 -13.262776 -51.205288 47.765930 10.943648 -0.256485 7.121018 1.556411 2.752429 75.251465 53.809319 36.531570 36.494740 12.039471 -34.851116 -21.005854 -1.026224 -3.895371 -1.891139 4.620036 2.176910 4.222237 -2.884699 13.614288 -3.922685 0.148939 -3.683494 -0.957658 -10.748682 -8.232553 -0.204948 2.409162 -10.114670 1.344120 0.029882 7.402834 
-9.683903 50.630135 23.511562 2.463479 0.927015 -2.256038 0.000000 0.000000 0.000000 2.442121 -1.034762 1.582126 3.493142 -3.347316 -2.122936 10.917639 6.398208 -6.200846 -5.191718 -1.241262 2.684786 -88.527107 -49.641861 39.674095 -53.981037 -13.029433 -55.668453 49.861233 10.350269 -0.380868 7.409287 1.439740 2.799103 76.182892 54.140270 33.728500 31.978144 12.406046 -34.054699 -22.157537 -2.827105 -3.614509 -1.845697 4.666847 2.335294 3.817101 -3.037713 14.389403 -3.518186 0.124289 -3.520186 -0.918491 -10.755079 -8.342419 -0.252006 2.542204 -9.944009 1.346375 0.078014 7.295604 
-9.706070 50.617825 23.539364 2.351508 0.878349 -2.041225 0.000000 0.000000 0.000000 2.531680 -0.956653 1.611430 3.431413 -3.298198 -2.269736 11.173632 6.445428 -6.308674 -5.051773 -1.681625 2.763610 -88.336578 -49.317905 40.568832 -55.464615 -12.811224 -56.328671 50.770649 9.179789 -0.826835 7.538500 1.166937 2.904603 76.176140 53.490768 33.431252 32.782444 12.161604 -34.120163 -24.463148 -2.182025 -3.749838 -1.980420 4.721302 2.498924 3.900972 -3.108799 14.870075 -3.340773 0.083705 -3.450547 -0.674714 -10.743952 -8.486517 -0.273477 2.683700 -10.133647 1.304734 0.050877 7.203578 
-9.745850 50.635536 23.565136 2.313095 0.751663 -1.591916 0.000000 0.000000 0.000000 2.614143 -0.966533 1.338030 3.385458 -2.965294 -2.767546 11.050710 6.076809 -6.285039 -5.210121 -1.811998 2.821517 -88.624672 -48.865810 37.845547 -54.122414 -12.671704 -54.284077 47.284630 9.790824 -0.809001 7.042604 0.905748 2.975408 76.130432 52.286369 35.428055 37.111340 11.558541 -33.357151 -27.576330 -2.197267 -3.778184 -1.775919 4.868731 2.392052 4.070327 -2.977892 13.427143 -3.680177 0.126394 -3.616194 -0.371340 -10.574492 -8.523208 -0.564777 2.680803 -10.571386 1.376427 0.063796 7.164992 
-9.786176 50.619930 23.591780 2.310865 0.693231 -1.103553 0.000000 0.000000 0.000000 2.590942 -1.074092 0.878935 3.525193 -2.818475 -2.972358 10.351220 6.613247 -6.085526 -5.612546 -2.003921 2.781082 -88.928879 -48.407410 33.369488 -51.114674 -12.537842 -51.027054 44.015079 10.756764 -0.609317 6.512526 0.758608 2.959343 76.511894 51.283836 38.512203 41.685490 10.705916 -33.393974 -28.308304 -3.398023 -3.515873 -2.116683 5.012832 2.398274 4.625249 -2.996091 12.970433 -3.910340 0.146283 -3.695032 -0.332858 -10.473991 -8.468372 -0.312114 2.595057 -11.003231 1.127772 0.035196 7.243711 
-9.828309 50.606022 23.614454 2.499654 0.790951 -0.732487 0.000000 0.000000 0.000000 2.402950 -1.279264 0.410054 3.498182 -2.789017 -3.050865 10.012558 7.074004 -5.746158 -6.078393 -2.452042 2.555936 -89.028709 -48.170715 28.493097 -47.153149 -12.339762 -46.933456 43.992577 10.023601 -0.914261 6.132221 0.563618 2.786708 77.300140 50.210629 42.112129 46.792625 9.563107 -34.236832 -27.376354 -5.008212 -3.129833 -2.409694 4.994035 2.395493 4.585982 -3.112928 13.067502 -3.778897 0.128692 -3.648061 -0.586256 -10.505587 -8.385098 0.146752 2.438401 -11.363356 0.786641 0.017197 7.391071 
-9.880031 50.629093 23.633081 2.356593 0.800753 -0.478469 0.000000 0.000000 0.000000 2.478591 -1.376952 0.078102 3.525095 -2.759271 -3.236192 10.102751 6.901426 -5.547575 -6.584597 -2.684448 2.592574 -88.975327 -48.240959 24.070938 -43.254860 -11.940344 -43.109600 44.555206 8.618433 -1.432997 5.820795 0.527082 2.865932 78.590546 49.487061 45.578259 50.015472 8.866659 -33.812984 -29.132854 -4.968391 -3.117001 -1.737137 5.034987 2.448289 3.531388 -3.111561 12.737782 -3.246055 0.095714 -3.560699 -0.381228 -10.445162 -8.406045 0.195031 2.381040 -11.614014 0.716160 0.019497 7.372812 
-9.947846 50.634949 23.656004 2.095515 0.800771 -0.292940 0.000000 0.000000 0.000000 2.668158 -1.396483 -0.088103 3.911234 -3.168681 -3.266983 8.856247 7.655671 -5.852976 -6.814815 -2.619512 2.775803 -89.126869 -48.213291 20.771578 -40.589710 -11.390470 -40.406361 44.637852 7.619980 -1.830229 5.724311 0.489992 3.031614 79.942055 49.014378 48.245628 51.400181 8.427196 -32.535004 -32.336197 -3.820996 -3.394052 -1.287559 5.130260 2.539683 3.376201 -3.111765 11.977123 -3.287929 0.110327 -3.660726 -0.059070 -10.381028 -8.528081 0.187429 2.457016 -11.742031 0.660935 0.022466 7.281507 
-10.008367 50.627945 23.676054 2.084331 0.898421 -0.351519 0.000000 0.000000 0.000000 2.616698 -1.435547 0.019525 3.884387 -3.383721 -3.101253 8.591691 7.829298 -5.943999 -6.511742 -2.461185 2.718970 -89.559364 -48.181812 19.587357 -39.119835 -11.214211 -40.227715 45.261806 8.017698 -1.639091 5.663499 0.724463 2.964040 80.579140 48.728504 49.803600 51.976650 8.141167 -31.207380 -33.514851 -3.192499 -3.555930 -1.229515 5.032930 2.316705 3.694550 -2.902873 11.608092 -3.619295 0.140182 -3.937451 -0.068953 -10.506686 -8.674475 0.304174 2.559162 -11.394246 0.534185 -0.006191 7.221809 
-10.046018 50.631100 23.697670 2.169618 0.898401 -0.517515 0.000000 0.000000 0.000000 2.463286 -1.318339 0.322180 3.567487 -3.344839 -3.062254 9.309410 7.119094 -6.022299 -6.432633 -2.133470 2.621709 -89.412788 -47.928417 20.007519 -39.231842 -11.488923 -42.342140 47.153362 8.120781 -1.502695 5.697110 1.054758 2.827894 80.558914 47.991108 49.537766 52.917156 7.425564 -30.195494 -32.701588 -4.800838 -3.122904 -1.132015 5.064573 2.237173 3.444907 -2.809947 11.655318 -3.551444 0.126688 -4.016224 -0.147137 -10.471893 -8.679965 0.294162 2.628631 -11.268712 0.513533 -0.006706 7.117895 
-10.100956 50.635136 23.709719 2.130702 0.742145 -0.615183 0.000000 0.000000 0.000000 2.449036 -1.074153 0.634837 3.320717 -3.325922 -2.866703 9.862541 6.787913 -6.097502 -6.342298 -1.741580 2.650665 -88.982452 -47.522121 21.452415 -40.754673 -11.872645 -44.515053 50.327961 5.800155 -2.426257 6.061876 1.402075 2.797217 79.861252 47.568111 47.541409 52.140072 7.372289 -27.180361 -29.567965 -5.200393 -3.050238 -1.102914 5.317585 2.427251 3.606528 -2.844335 11.331749 -3.676901 0.143898 -4.116318 -0.098391 -10.188097 -8.454890 0.165795 2.537588 -11.441984 0.577057 0.007154 7.079860 
-10.167847 50.616924 23.697187 2.091810 0.644484 -0.693316 0.000000 0.000000 0.000000 2.503896 -0.986204 0.908237 2.994128 -3.151077 -2.592027 10.398697 6.701488 -6.017632 -5.865632 -1.444082 2.730482 -88.975090 -46.850994 23.951097 -44.208702 -12.120680 -47.280678 52.021172 4.685908 -2.870256 6.394405 1.775805 2.844366 78.871193 48.111626 45.345100 49.390358 7.794420 -22.258934 -26.650930 -2.997316 -3.587246 -1.560450 5.499370 2.653851 4.196175 -2.947836 12.140894 -3.702298 0.160402 -4.120337 -0.283805 -10.073628 -8.364330 0.586586 2.569288 -11.406152 0.341060 -0.001799 7.019476 
-10.236072 50.604626 23.700203 1.996735 0.556616 -0.537084 0.000000 0.000000 0.000000 2.581424 -0.898291 1.035182 2.948207 -3.034079 -2.562241 9.934371 6.971774 -6.148302 -5.649784 -1.023088 2.828312 -88.860558 -45.784782 27.006210 -49.437290 -12.023408 -51.675373 49.510498 6.509939 -2.128086 6.475653 2.078766 2.892604 78.078827 48.780113 43.187916 46.681087 8.071179 -18.530931 -26.381615 0.151451 -4.291828 -1.805511 5.688367 2.875120 4.274218 -3.064783 12.845521 -3.387714 0.136117 -4.084239 -0.234779 -9.794034 -8.090522 0.702676 2.342375 -11.846783 0.283737 0.004941 7.096352 
-10.271007 50.623722 23.670496 2.104282 0.585915 -0.498021 0.000000 0.000000 0.000000 2.511144 -0.800576 1.298838 3.064620 -3.005209 -2.386189 9.155663 7.202525 -6.319036 -5.320474 -0.768509 2.790867 -88.830444 -44.735867 30.887836 -54.969479 -11.736230 -56.298649 47.835640 8.066321 -1.486120 6.670338 2.139196 2.823601 77.240364 49.390003 39.940475 43.431324 8.505874 -16.236744 -25.946444 3.694862 -5.015576 -1.424406 5.676269 2.837099 3.180628 -3.043782 12.840283 -2.796034 0.105719 -4.004915 -0.176452 -9.735102 -8.018705 0.243921 2.312148 -11.971580 0.546142 -0.032926 7.003133 
-10.266438 50.637428 23.632710 2.465580 0.790999 -0.371058 0.000000 0.000000 0.000000 2.283017 -0.820026 1.513796 2.940506 -3.025036 -2.239910 9.117820 7.637270 -6.463395 -4.850476 -0.825883 2.588589 -89.207008 -43.724995 34.858677 -60.171288 -11.126335 -59.814228 48.175503 8.770818 -1.179438 6.713990 1.961755 2.629251 76.724129 50.153572 36.338383 39.707878 8.767157 -14.106701 -24.919222 5.026880 -5.247605 -1.259157 5.415644 2.485419 2.253707 -2.907757 12.511982 -2.442147 0.091389 -3.995766 -0.576345 -10.066805 -8.347774 0.313180 2.593039 -11.853006 0.527361 -0.004029 6.847605 
